<svg xmlns="http://www.w3.org/2000/svg" viewBox="0 0 1200 720" width="1200" height="720" font-family="-apple-system,'Segoe UI',sans-serif">
  <defs>
    <filter id="shadow-card"><feDropShadow dx="0" dy="1" stdDeviation="3" flood-color="#00000012"/></filter>
  </defs>

  <!-- Background -->
  <rect width="1200" height="720" fill="#f9eedc"/>

  <!-- ── Sidebar ── -->
  <rect width="210" height="720" fill="#161616"/>
  <rect x="20" y="20" width="32" height="32" rx="6" fill="#e13500"/>
  <text x="36" y="41" fill="white" font-size="16" font-weight="700" text-anchor="middle">E</text>
  <text x="62" y="35" fill="#f9eedc" font-size="13" font-weight="700" letter-spacing="0.5">EKTHOS</text>
  <text x="62" y="48" fill="#e13500" font-size="9" font-weight="600" letter-spacing="2">CHURCH</text>
  <rect x="0" y="68" width="210" height="1" fill="#ffffff10"/>
  <text x="40" y="101" fill="#ffffff60" font-size="12">Dashboard</text>
  <text x="40" y="133" fill="#ffffff60" font-size="12">Pessoas</text>
  <text x="40" y="165" fill="#ffffff60" font-size="12">Discipulado</text>
  <text x="40" y="197" fill="#ffffff60" font-size="12">Células</text>
  <text x="40" y="229" fill="#ffffff60" font-size="12">Ministérios</text>
  <text x="40" y="261" fill="#ffffff60" font-size="12">Voluntários</text>
  <text x="40" y="293" fill="#ffffff60" font-size="12">Escalas</text>
  <text x="40" y="325" fill="#ffffff60" font-size="12">Financeiro</text>
  <!-- Agenda (active) -->
  <rect x="0" y="334" width="3" height="38" fill="#e13500"/>
  <rect x="3" y="334" width="207" height="38" fill="#ffffff0a"/>
  <text x="40" y="357" fill="white" font-size="12" font-weight="600">Agenda</text>
  <circle cx="30" cy="690" r="14" fill="#e13500"/>
  <text x="30" y="695" fill="white" font-size="11" font-weight="700" text-anchor="middle">PC</text>
  <text x="52" y="686" fill="#f9eedc" font-size="11" font-weight="600">Pr. Carlos</text>
  <text x="52" y="699" fill="#f9eedc50" font-size="10">admin</text>

  <!-- ── Main content ── -->
  <rect x="210" y="0" width="990" height="60" fill="#f9eedc"/>
  <rect x="210" y="59" width="990" height="1" fill="#00000008"/>
  <text x="234" y="26" fill="#161616" font-size="18" font-weight="700" font-family="Georgia,'Times New Roman',serif">Agenda</text>
  <text x="234" y="46" fill="#8A8A8A" font-size="12">Abril 2026 · 14 eventos este mês</text>
  <rect x="1060" y="14" width="120" height="34" rx="10" fill="#e13500"/>
  <text x="1120" y="36" fill="white" font-size="12" font-weight="600" text-anchor="middle">+ Novo evento</text>

  <!-- View toggle -->
  <rect x="234" y="70" width="140" height="32" rx="8" fill="white" stroke="#f0e0c8" stroke-width="1"/>
  <rect x="236" y="72" width="66" height="28" rx="6" fill="#e13500"/>
  <text x="269" y="91" fill="white" font-size="11" font-weight="600" text-anchor="middle">Mensal</text>
  <text x="307" y="91" fill="#5A5A5A" font-size="11" text-anchor="middle">Semanal</text>
  <!-- Month nav -->
  <rect x="600" y="70" width="32" height="32" rx="8" fill="white" stroke="#f0e0c8" stroke-width="1"/>
  <text x="616" y="91" fill="#5A5A5A" font-size="14" text-anchor="middle">‹</text>
  <text x="700" y="91" fill="#161616" font-size="14" font-weight="700" text-anchor="middle">Abril 2026</text>
  <rect x="768" y="70" width="32" height="32" rx="8" fill="white" stroke="#f0e0c8" stroke-width="1"/>
  <text x="784" y="91" fill="#5A5A5A" font-size="14" text-anchor="middle">›</text>

  <!-- Calendar grid -->
  <!-- Day headers -->
  <rect x="234" y="112" width="936" height="32" rx="0" fill="white"/>
  <rect x="234" y="112" width="936" height="1" fill="#f0e0c8"/>
  <rect x="234" y="143" width="936" height="1" fill="#f0e0c8"/>
  <text x="367" y="133" fill="#8A8A8A" font-size="11" font-weight="600" text-anchor="middle">DOM</text>
  <text x="501" y="133" fill="#8A8A8A" font-size="11" font-weight="600" text-anchor="middle">SEG</text>
  <text x="635" y="133" fill="#8A8A8A" font-size="11" font-weight="600" text-anchor="middle">TER</text>
  <text x="769" y="133" fill="#8A8A8A" font-size="11" font-weight="600" text-anchor="middle">QUA</text>
  <text x="903" y="133" fill="#8A8A8A" font-size="11" font-weight="600" text-anchor="middle">QUI</text>
  <text x="1037" y="133" fill="#8A8A8A" font-size="11" font-weight="600" text-anchor="middle">SEX</text>
  <text x="1137" y="133" fill="#8A8A8A" font-size="11" font-weight="600" text-anchor="middle">SÁB</text>

  <!-- Week row 1 (Mar 30 - Abr 5) -->
  <!-- Col lines -->
  <rect x="234" y="112" width="1" height="608" fill="#f0e0c8"/>
  <rect x="368" y="112" width="1" height="608" fill="#f0e0c8"/>
  <rect x="502" y="112" width="1" height="608" fill="#f0e0c8"/>
  <rect x="636" y="112" width="1" height="608" fill="#f0e0c8"/>
  <rect x="770" y="112" width="1" height="608" fill="#f0e0c8"/>
  <rect x="904" y="112" width="1" height="608" fill="#f0e0c8"/>
  <rect x="1038" y="112" width="1" height="608" fill="#f0e0c8"/>
  <rect x="1170" y="112" width="1" height="608" fill="#f0e0c8"/>

  <!-- Row 1 -->
  <rect x="234" y="143" width="936" height="95" fill="#f9eedc40"/>
  <rect x="234" y="238" width="936" height="1" fill="#f0e0c8"/>
  <text x="352" y="163" fill="#8A8A8A" font-size="12">30</text>
  <text x="486" y="163" fill="#8A8A8A" font-size="12">31</text>
  <text x="620" y="163" fill="#161616" font-size="12" font-weight="700">1</text>
  <text x="754" y="163" fill="#161616" font-size="12">2</text>
  <text x="888" y="163" fill="#161616" font-size="12">3</text>
  <text x="1022" y="163" fill="#161616" font-size="12">4</text>
  <text x="1122" y="163" fill="#161616" font-size="12">5</text>
  <!-- Event: Culto de Celebração Sunday Apr 6 -->
  <rect x="369" y="168" width="132" height="22" rx="6" fill="#e13500"/>
  <text x="375" y="183" fill="white" font-size="9" font-weight="600">📖 Culto Domingo 9h</text>
  <!-- Event: Ensaio Louvor -->
  <rect x="1039" y="168" width="130" height="22" rx="6" fill="#C4841D20" stroke="#C4841D40" stroke-width="1"/>
  <text x="1045" y="183" fill="#C4841D" font-size="9" font-weight="600">🎵 Ensaio Louvor 19h</text>

  <!-- Row 2: Apr 6-12 -->
  <rect x="234" y="238" width="936" height="95" fill="white"/>
  <rect x="234" y="333" width="936" height="1" fill="#f0e0c8"/>
  <text x="352" y="258" fill="#161616" font-size="12" font-weight="700">6</text>
  <text x="486" y="258" fill="#161616" font-size="12">7</text>
  <text x="620" y="258" fill="#161616" font-size="12">8</text>
  <text x="754" y="258" fill="#161616" font-size="12">9</text>
  <text x="888" y="258" fill="#161616" font-size="12">10</text>
  <text x="1022" y="258" fill="#161616" font-size="12">11</text>
  <text x="1122" y="258" fill="#161616" font-size="12">12</text>
  <!-- Culto Sunday -->
  <rect x="235" y="262" width="132" height="22" rx="6" fill="#e13500"/>
  <text x="241" y="277" fill="white" font-size="9" font-weight="600">📖 Culto Domingo 9h</text>
  <!-- Reunião Líderes Wednesday -->
  <rect x="771" y="262" width="132" height="22" rx="6" fill="#67000020" stroke="#67000040" stroke-width="1"/>
  <text x="777" y="277" fill="#670000" font-size="9" font-weight="600">👥 Reunião Líderes</text>
  <!-- JEC Friday -->
  <rect x="1039" y="262" width="130" height="22" rx="6" fill="#C4841D20" stroke="#C4841D40" stroke-width="1"/>
  <text x="1045" y="277" fill="#C4841D" font-size="9" font-weight="600">⚡ JEC Jovens 19h</text>
  <!-- Células Thursday -->
  <rect x="905" y="291" width="132" height="22" rx="6" fill="#2D7A4F20" stroke="#2D7A4F40" stroke-width="1"/>
  <text x="911" y="306" fill="#2D7A4F" font-size="9" font-weight="600">🔵 Noite de Células</text>

  <!-- Row 3: Apr 13-19 -->
  <rect x="234" y="333" width="936" height="95" fill="#f9eedc40"/>
  <rect x="234" y="428" width="936" height="1" fill="#f0e0c8"/>
  <text x="352" y="353" fill="#161616" font-size="12" font-weight="700">13</text>
  <text x="486" y="353" fill="#161616" font-size="12">14</text>
  <text x="620" y="353" fill="#161616" font-size="12">15</text>
  <text x="754" y="353" fill="#161616" font-size="12">16</text>
  <text x="888" y="353" fill="#161616" font-size="12">17</text>
  <text x="1022" y="353" fill="#161616" font-size="12">18</text>
  <text x="1122" y="353" fill="#161616" font-size="12">19</text>
  <rect x="235" y="357" width="132" height="22" rx="6" fill="#e13500"/>
  <text x="241" y="372" fill="white" font-size="9" font-weight="600">📖 Culto Domingo 9h</text>
  <rect x="771" y="357" width="132" height="22" rx="6" fill="#67000020" stroke="#67000040" stroke-width="1"/>
  <text x="777" y="372" fill="#670000" font-size="9" font-weight="600">👥 Reunião Pastores</text>
  <rect x="905" y="357" width="132" height="22" rx="6" fill="#2D7A4F20" stroke="#2D7A4F40" stroke-width="1"/>
  <text x="911" y="372" fill="#2D7A4F" font-size="9" font-weight="600">🙏 Vigília 21h</text>

  <!-- Row 4: Apr 20-26 — TODAY is 22 -->
  <rect x="234" y="428" width="936" height="95" fill="white"/>
  <rect x="234" y="523" width="936" height="1" fill="#f0e0c8"/>
  <text x="352" y="448" fill="#161616" font-size="12" font-weight="700">20</text>
  <text x="486" y="448" fill="#161616" font-size="12">21</text>
  <!-- TODAY -->
  <circle cx="628" cy="450" r="12" fill="#e13500"/>
  <text x="628" y="455" fill="white" font-size="12" font-weight="700" text-anchor="middle">22</text>
  <text x="754" y="448" fill="#161616" font-size="12">23</text>
  <text x="888" y="448" fill="#161616" font-size="12">24</text>
  <text x="1022" y="448" fill="#161616" font-size="12">25</text>
  <text x="1122" y="448" fill="#161616" font-size="12">26</text>
  <rect x="235" y="452" width="132" height="22" rx="6" fill="#e13500"/>
  <text x="241" y="467" fill="white" font-size="9" font-weight="600">📖 Culto Domingo 9h</text>
  <!-- Today event -->
  <rect x="503" y="452" width="132" height="22" rx="6" fill="#2B6CB020" stroke="#2B6CB040" stroke-width="1"/>
  <text x="509" y="467" fill="#2B6CB0" font-size="9" font-weight="600">📋 Reunião Diretoria</text>
  <rect x="771" y="452" width="132" height="22" rx="6" fill="#67000020" stroke="#67000040" stroke-width="1"/>
  <text x="777" y="467" fill="#670000" font-size="9" font-weight="600">👥 Batismos 16h</text>
  <!-- Ensaio Sábado -->
  <rect x="1105" y="452" width="64" height="22" rx="6" fill="#C4841D20" stroke="#C4841D40" stroke-width="1"/>
  <text x="1111" y="467" fill="#C4841D" font-size="9" font-weight="600">🎵 Ensaio</text>

  <!-- Row 5: Apr 27-30 -->
  <rect x="234" y="523" width="936" height="95" fill="#f9eedc40"/>
  <rect x="234" y="618" width="936" height="1" fill="#f0e0c8"/>
  <text x="352" y="543" fill="#161616" font-size="12" font-weight="700">27</text>
  <text x="486" y="543" fill="#161616" font-size="12">28</text>
  <text x="620" y="543" fill="#161616" font-size="12">29</text>
  <text x="754" y="543" fill="#161616" font-size="12">30</text>
  <rect x="235" y="547" width="132" height="22" rx="6" fill="#e13500"/>
  <text x="241" y="562" fill="white" font-size="9" font-weight="600">📖 Culto Domingo 9h</text>
  <rect x="771" y="547" width="132" height="22" rx="6" fill="#67000020" stroke="#67000040" stroke-width="1"/>
  <text x="777" y="562" fill="#670000" font-size="9" font-weight="600">📢 Conferência 19h</text>

  <!-- Legend -->
  <rect x="234" y="628" width="936" height="50" rx="10" fill="white" stroke="#f0e0c8" stroke-width="1"/>
  <rect x="254" y="645" width="12" height="12" rx="3" fill="#e13500"/>
  <text x="272" y="655" fill="#5A5A5A" font-size="10">Culto / Serviço</text>
  <rect x="374" y="645" width="12" height="12" rx="3" fill="#67000040"/>
  <text x="392" y="655" fill="#5A5A5A" font-size="10">Reunião</text>
  <rect x="464" y="645" width="12" height="12" rx="3" fill="#2D7A4F40"/>
  <text x="482" y="655" fill="#5A5A5A" font-size="10">Oração / Vigília</text>
  <rect x="574" y="645" width="12" height="12" rx="3" fill="#C4841D40"/>
  <text x="592" y="655" fill="#5A5A5A" font-size="10">Ministério Louvor</text>
  <rect x="694" y="645" width="12" height="12" rx="3" fill="#2B6CB040"/>
  <text x="712" y="655" fill="#5A5A5A" font-size="10">Administrativo</text>
  <text x="1100" y="655" fill="#e13500" font-size="11" font-weight="600">14 eventos em Abril</text>
</svg>
