<svg xmlns="http://www.w3.org/2000/svg" viewBox="110 208 92 92" width="92" height="92"><title>Ekthos Church</title>
  <!-- Ekthos Church logo — vector trace from PNG -->
  <!-- Red cross/symbol -->
  <path fill="#e13500" d="M 147.110 218.431 C 143.456 220.402, 142.074 223.860, 142.035 231.128 C 142.012 235.557, 141.535 238.141, 140.598 238.919 C 139.365 239.942, 134.775 240.623, 127.173 240.912 C 125.893 240.960, 123.563 242.283, 121.995 243.852 C 119.507 246.339, 119.143 247.453, 119.143 252.568 C 119.143 258.634, 121.039 263.376, 123.947 264.581 C 124.801 264.935, 129.100 265.512, 133.500 265.862 L 141.500 266.500 142 275.500 C 142.275 280.450, 143.076 285.508, 143.780 286.740 C 145.624 289.967, 149.830 291.775, 155 291.562 C 164.186 291.184, 167 287.073, 167 274.032 L 167 266 173.532 266 C 185.655 266, 190.287 261.949, 189.574 251.970 C 189.275 247.778, 188.608 246.146, 186.213 243.752 C 183.571 241.110, 182.431 240.726, 176.363 240.441 C 172.588 240.263, 168.938 240.091, 168.250 240.059 C 167.371 240.017, 166.999 237.850, 166.996 232.750 C 166.992 225.101, 165.041 220.116, 161.304 218.206 C 158.600 216.825, 149.830 216.963, 147.110 218.431 M 148.618 222.086 C 146.283 223.923, 146 224.834, 146 230.526 C 146 234.035, 145.490 238.025, 144.867 239.392 C 143.706 241.941, 138.244 245.269, 136.744 244.342 C 135.233 243.408, 125.980 245.162, 124.474 246.669 C 123.663 247.480, 123 249.011, 123 250.071 C 123 251.860, 123.803 252, 134.083 252 C 142.504 252, 145.067 252.300, 144.752 253.250 C 144.464 254.118, 141.154 254.588, 133.931 254.788 C 128.208 254.946, 123.126 255.474, 122.640 255.960 C 122.126 256.474, 122.837 257.928, 124.332 259.423 C 126.697 261.788, 127.609 262, 135.396 262 C 140.902 262, 144.142 262.420, 144.621 263.196 C 145.028 263.854, 145.617 269.065, 145.930 274.777 C 146.409 283.502, 146.810 285.389, 148.441 286.581 C 152.645 289.655, 153 288.754, 153 275 C 153 264.111, 153.244 262, 154.500 262 C 155.756 262, 156 264.111, 156 275 C 156 285.889, 156.244 288, 157.500 288 C 158.325 288, 159.900 287.100, 161 286 C 162.758 284.242, 163 282.667, 163 273 L 163 262 172.311 262 C 180.300 262, 181.934 261.710, 183.811 259.961 C 188.226 255.849, 186.908 255.088, 174.831 254.783 C 166.995 254.584, 163.539 254.127, 163.248 253.250 C 162.933 252.300, 165.502 252, 173.948 252 C 183.165 252, 185.166 251.730, 185.670 250.417 C 186.027 249.488, 185.390 247.945, 184.130 246.685 C 182.288 244.843, 180.737 244.517, 173.241 244.394 C 168.433 244.316, 164.162 244.195, 163.750 244.126 C 163.338 244.057, 163 239.825, 163 234.723 C 163 224.730, 161.626 221, 157.943 221 C 156.127 221, 156 221.783, 156 233 C 156 243, 155.750 245, 154.500 245 C 153.250 245, 153 243.007, 153 233.059 C 153 226.491, 152.603 220.873, 152.118 220.573 C 151.632 220.273, 150.057 220.954, 148.618 222.086 M 243.571 271.571 C 242.707 272.436, 242 273.941, 242 274.916 C 242 278.689, 248.785 281.775, 250.605 278.830 C 251.097 278.034, 250.774 277.873, 249.592 278.326 C 246.708 279.433, 243.838 277.231, 244.190 274.183 C 244.460 271.850, 244.924 271.519, 247.745 271.647 C 249.530 271.728, 250.741 271.390, 250.436 270.897 C 249.541 269.448, 245.275 269.868, 243.571 271.571 M 266.286 275 C 266.294 278.025, 266.487 279.262, 266.716 277.750 C 267.059 275.486, 267.640 275, 270 275 C 272.360 275, 272.941 275.486, 273.284 277.750 C 273.513 279.262, 273.706 278.025, 273.714 275 C 273.721 271.975, 273.533 270.512, 273.294 271.750 C 272.965 273.458, 272.172 274, 270 274 C 267.828 274, 267.035 273.458, 266.706 271.750 C 266.467 270.512, 266.279 271.975, 266.286 275 M 290.168 274.231 C 290.016 278.512, 290.239 279.022, 292.513 279.593 C 296.214 280.521, 298.030 278.485, 297.832 273.628 L 297.664 269.500 297.276 273.174 C 296.805 277.641, 294.693 279.820, 292.556 278.046 C 291.762 277.387, 290.937 275.195, 290.724 273.174 C 290.377 269.887, 290.319 269.998, 290.168 274.231 M 313 274.940 C 313 277.723, 313.450 280, 314 280 C 314.550 280, 315 279.325, 315 278.500 C 315 276.524, 316.894 276.594, 319.171 278.655 C 321.172 280.465, 321.743 279.143, 319.800 277.200 C 318.867 276.267, 318.881 276, 319.866 276 C 320.658 276, 321.014 274.969, 320.816 273.250 C 320.542 270.862, 320.006 270.459, 316.750 270.190 L 313 269.879 313 274.940 M 336.571 271.571 C 335.707 272.436, 335 273.941, 335 274.916 C 335 278.689, 341.785 281.775, 343.605 278.830 C 344.097 278.034, 343.774 277.873, 342.592 278.326 C 339.708 279.433, 336.838 277.231, 337.190 274.183 C 337.460 271.850, 337.924 271.519, 340.745 271.647 C 342.530 271.728, 343.741 271.390, 343.436 270.897 C 342.541 269.448, 338.275 269.868, 336.571 271.571 M 359.286 275 C 359.294 278.025, 359.487 279.262, 359.716 277.750 C 360.059 275.486, 360.640 275, 363 275 C 365.360 275, 365.941 275.486, 366.284 277.750 C 366.513 279.262, 366.706 278.025, 366.714 275 C 366.721 271.975, 366.533 270.512, 366.294 271.750 C 365.965 273.458, 365.172 274, 363 274 C 360.828 274, 360.035 273.458, 359.706 271.750 C 359.467 270.512, 359.279 271.975, 359.286 275 M 315 273.500 C 315 276.287, 317.065 276.831, 318.964 274.544 C 320.476 272.721, 319.494 271, 316.941 271 C 315.537 271, 315 271.692, 315 273.500"/>
  <!-- Light text (EKTHOS CHURCH) -->
  <path fill="#c8bfb4" d="M 212 248.500 L 212 264 223 264 C 233.333 264, 234 263.879, 234 262 C 234 260.148, 233.333 260, 225 260 L 216 260 216 255 L 216 250 224.073 250 C 231.223 250, 232.108 249.800, 231.812 248.250 C 231.535 246.794, 230.177 246.451, 223.739 246.208 L 216 245.916 216 241.458 L 216 237 224.500 237 C 232.333 237, 233 236.843, 233 235 C 233 233.127, 232.333 233, 222.500 233 L 212 233 212 248.500 M 241 248.430 L 241 264 243.500 264 C 245.781 264, 246 263.622, 246 259.674 C 246 256.320, 246.578 254.806, 248.574 252.931 L 251.147 250.513 256.535 256.507 C 259.498 259.803, 261.940 262.837, 261.961 263.250 C 261.982 263.663, 263.390 264, 265.090 264 L 268.179 264 261.590 256.035 C 257.965 251.654, 255 247.669, 255 247.179 C 255 246.690, 257.740 243.299, 261.089 239.645 C 266.525 233.712, 266.924 233, 264.815 233 C 263.191 233, 259.963 235.508, 254.477 241.032 L 246.500 249.064 246 241.282 C 245.542 234.151, 245.312 233.473, 243.250 233.180 L 241 232.861 241 248.430 M 268 235 C 268 236.758, 268.667 237, 273.500 237 L 279 237 279 250.500 C 279 263.333, 279.099 264, 281 264 C 282.901 264, 283 263.333, 283 250.500 L 283 237 288.500 237 C 293.333 237, 294 236.758, 294 235 C 294 233.103, 293.333 233, 281 233 C 268.667 233, 268 233.103, 268 235 M 299 248.500 C 299 263.333, 299.086 264, 301 264 C 302.811 264, 303 263.333, 303 256.961 L 303 249.922 311.750 250.211 L 320.500 250.500 320.796 257.250 C 321.055 263.180, 321.329 264, 323.046 264 C 324.901 264, 325 263.213, 325 248.500 C 325 233.667, 324.914 233, 323 233 C 321.205 233, 321 233.667, 321 239.500 L 321 246 312 246 L 303 246 303 239.500 C 303 233.667, 302.795 233, 301 233 C 299.086 233, 299 233.667, 299 248.500 M 340.500 234.812 C 335.254 238.173, 332.799 241.604, 332.267 246.319 C 331.134 256.375, 336.747 263.065, 346.937 263.802 C 353.249 264.258, 356.882 262.922, 360.835 258.690 C 366.402 252.730, 365.376 242.048, 358.719 236.660 C 353.829 232.702, 345.165 231.823, 340.500 234.812 M 373.345 234.873 C 368.059 238.193, 367.928 245.286, 373.101 248.054 C 374.232 248.659, 377.484 249.841, 380.329 250.679 C 388.120 252.977, 389.776 255.081, 386.429 258.429 C 384.389 260.468, 375.213 260.538, 372.354 258.535 C 370.180 257.012, 369 257.401, 369 259.641 C 369 263.440, 382.259 265.469, 387.928 262.537 C 391.062 260.917, 392 259.197, 392 255.073 C 392 251.301, 389.257 249.119, 381.269 246.536 C 375.403 244.639, 374.459 243.999, 374.190 241.741 C 373.970 239.892, 374.510 238.797, 376.047 237.975 C 378.231 236.806, 385.122 237.041, 388.121 238.387 C 390.067 239.261, 391.614 236.214, 390.030 234.630 C 389.460 234.060, 386.183 233.436, 382.747 233.243 C 377.824 232.966, 375.831 233.311, 373.345 234.873 M 342.337 238.550 C 337.193 241.178, 335.086 249.056, 338.048 254.590 C 341.270 260.610, 350.821 261.919, 356.234 257.082 C 359.180 254.450, 359.500 253.620, 359.500 248.605 C 359.500 243.934, 359.079 242.625, 356.868 240.413 C 353.528 237.073, 346.893 236.222, 342.337 238.550"/>
</svg>